<svg width="2080" height="639" viewBox="0 0 2080 639" fill="none" xmlns="http://www.w3.org/2000/svg">
<path d="M597.256 223.923C616.252 238.096 637.561 245.183 661.184 245.183C682.64 245.183 693.369 238.785 693.369 225.99C693.369 216.246 681.164 207.289 656.754 199.12L641.4 194.1C623.29 187.998 610.839 182.437 604.047 177.417C593.024 169.149 587.512 157.387 587.512 142.131C587.512 125.202 594.943 111.668 609.805 101.531C621.616 93.4597 636.479 89.4242 654.392 89.4242C681.558 89.4242 705.967 96.1664 727.621 109.651L708.871 139.917C692.926 127.81 675.652 121.757 657.05 121.757C649.372 121.757 643.073 123.135 638.152 125.891C632.05 129.237 628.998 134.11 628.998 140.507C628.998 145.428 631.656 149.661 636.971 153.204C641.203 156.157 648.93 159.306 660.15 162.653L676.538 167.377C716.007 179.09 735.741 198.086 735.741 224.366C735.741 237.555 730.918 249.317 721.273 259.652C709.068 272.742 687.906 279.287 657.788 279.287C628.457 279.287 602.03 270.724 578.506 253.598L597.256 223.923ZM829.049 39.5224V95.1821H884.708V123.233H829.049V220.232C829.049 229.779 830.181 236.374 832.444 240.016C835.496 245.035 840.565 247.545 847.651 247.545C856.411 247.545 865.417 244.1 874.669 237.21L884.118 264.671C869.748 273.825 854.59 278.402 838.645 278.402C822.11 278.402 809.61 273.48 801.145 263.638C794.157 255.468 790.663 243.657 790.663 228.205V123.233H750.8V95.1821H790.663V57.0914L829.049 39.5224ZM1028.8 158.667V155.862C1028.8 131.55 1017.24 119.395 994.109 119.395C972.455 119.395 952.967 125.94 935.644 139.031L920.585 111.718C943.321 96.8554 968.272 89.4242 995.437 89.4242C1021.62 89.4242 1041.16 96.9538 1054.05 112.013C1063.01 122.348 1067.49 137.604 1067.49 157.781V220.084C1067.49 243.116 1071.03 260.931 1078.12 273.53H1042.09C1037.86 265.36 1035.05 256.01 1033.68 245.478H1032.64C1027.62 255.321 1019.55 263.638 1008.43 270.429C999.374 275.941 987.416 278.697 972.553 278.697C954.935 278.697 940.368 273.53 928.852 263.195C916.844 252.368 910.84 238.588 910.84 221.856C910.84 179.73 944.896 158.667 1013.01 158.667H1028.8ZM1028.8 186.423H1016.99C993.961 186.423 976.687 189.376 965.172 195.281C955.329 200.301 950.408 208.962 950.408 221.265C950.408 229.533 953.36 236.079 959.266 240.901C964.876 245.527 972.16 247.84 981.116 247.84C993.026 247.84 1003.71 243.608 1013.15 235.144C1023.59 225.892 1028.8 213.982 1028.8 199.415V186.423ZM1124.18 15.0143H1163.45V165.606L1231.81 95.1821H1282.3L1213.94 164.72L1288.94 273.53H1240.52L1187.66 187.456L1163.45 210.34V273.53H1124.18V15.0143ZM1323.79 15.0143H1363.06V165.606L1431.41 95.1821H1481.91L1413.55 164.72L1488.55 273.53H1440.12L1387.27 187.456L1363.06 210.34V273.53H1323.79V15.0143Z" fill="black"/>
<path d="M570.386 409.182H613.644L648.634 506.033C652.768 517.254 656.41 529.409 659.56 542.5H660.741C663.693 530.098 667.335 517.943 671.666 506.033L706.804 409.182H750.062L675.652 590.63H644.796L570.386 409.182ZM939.778 506.033H806.755C807.444 521.683 812.366 534.38 821.519 544.124C832.543 555.64 846.568 561.398 863.596 561.398C883.675 561.398 901.441 551.998 916.894 533.199L940.516 557.116C921.126 581.526 894.256 593.73 859.905 593.73C831.755 593.73 809.068 584.724 791.844 566.713C775.407 549.39 767.188 527.047 767.188 499.685C767.188 477.44 772.552 458.1 783.281 441.663C792.828 427.096 805.574 416.515 821.519 409.92C832.444 405.393 844.108 403.129 856.509 403.129C876.293 403.129 893.173 408.641 907.15 419.664C921.618 430.885 931.362 446.584 936.382 466.761C938.646 475.915 939.778 485.56 939.778 495.698V506.033ZM900.211 477.244C899.423 467.106 896.766 458.641 892.238 451.85C883.675 439.35 871.372 433.1 855.328 433.1C840.958 433.1 829.147 438.907 819.895 450.521C814.186 457.706 810.643 466.614 809.265 477.244H900.211ZM1025.11 409.182V440.039C1041.65 417.204 1062.32 405.786 1087.12 405.786C1104.54 405.786 1119.01 410.806 1130.53 420.846C1143.52 432.165 1150.02 450.669 1150.02 476.358V587.53H1110.15V481.377C1110.15 467.401 1107.54 456.673 1102.33 449.192C1097.31 442.007 1088.84 438.415 1076.93 438.415C1064.73 438.415 1053.66 443.533 1043.72 453.769C1036.43 461.249 1030.82 470.895 1026.88 482.706V587.53H987.022V409.182H1025.11ZM1258.97 353.522V409.182H1314.63V437.233H1258.97V534.232C1258.97 543.779 1260.1 550.374 1262.37 554.016C1265.42 559.035 1270.49 561.545 1277.57 561.545C1286.33 561.545 1295.34 558.1 1304.59 551.21L1314.04 578.671C1299.67 587.825 1284.51 592.402 1268.57 592.402C1252.03 592.402 1239.53 587.48 1231.07 577.638C1224.08 569.468 1220.59 557.657 1220.59 542.205V437.233H1180.72V409.182H1220.59V371.091L1258.97 353.522ZM1352.58 409.182H1392.73V515.63C1392.73 544.271 1403.9 558.592 1426.25 558.592C1438.25 558.592 1449.18 553.376 1459.02 542.943C1466.21 535.364 1471.77 525.767 1475.71 514.153V409.182H1515.86V587.53H1478.36V555.787C1462.02 579.213 1440.81 590.925 1414.73 590.925C1393.18 590.925 1376.79 583.494 1365.57 568.632C1356.91 557.116 1352.58 541.269 1352.58 521.092V409.182ZM1603.71 462.627H1604.89C1617.98 423.552 1638.11 404.015 1665.27 404.015C1673.15 404.015 1680.73 405.54 1688.01 408.592L1677.82 445.796C1672.31 443.926 1666.65 442.991 1660.84 442.991C1645.79 442.991 1633.24 450.57 1623.2 465.728C1616.5 475.669 1611.83 488.464 1609.17 504.114V587.53H1569.9V409.182H1607.1L1603.71 462.627ZM1880.83 506.033H1747.8C1748.49 521.683 1753.41 534.38 1762.57 544.124C1773.59 555.64 1787.62 561.398 1804.64 561.398C1824.72 561.398 1842.49 551.998 1857.94 533.199L1881.56 557.116C1862.17 581.526 1835.3 593.73 1800.95 593.73C1772.8 593.73 1750.12 584.724 1732.89 566.713C1716.46 549.39 1708.24 527.047 1708.24 499.685C1708.24 477.44 1713.6 458.1 1724.33 441.663C1733.88 427.096 1746.62 416.515 1762.57 409.92C1773.49 405.393 1785.16 403.129 1797.56 403.129C1817.34 403.129 1834.22 408.641 1848.2 419.664C1862.67 430.885 1872.41 446.584 1877.43 466.761C1879.69 475.915 1880.83 485.56 1880.83 495.698V506.033ZM1841.26 477.244C1840.47 467.106 1837.81 458.641 1833.29 451.85C1824.72 439.35 1812.42 433.1 1796.38 433.1C1782.01 433.1 1770.2 438.907 1760.94 450.521C1755.23 457.706 1751.69 466.614 1750.31 477.244H1841.26ZM1928.66 537.923C1947.66 552.096 1968.97 559.183 1992.59 559.183C2014.05 559.183 2024.77 552.785 2024.77 539.99C2024.77 530.246 2012.57 521.289 1988.16 513.12L1972.81 508.1C1954.69 501.998 1942.24 496.437 1935.45 491.417C1924.43 483.149 1918.92 471.387 1918.92 456.131C1918.92 439.202 1926.35 425.668 1941.21 415.531C1953.02 407.46 1967.88 403.424 1985.8 403.424C2012.96 403.424 2037.37 410.166 2059.03 423.651L2040.28 453.917C2024.33 441.81 2007.06 435.757 1988.45 435.757C1980.78 435.757 1974.48 437.135 1969.56 439.891C1963.45 443.237 1960.4 448.11 1960.4 454.507C1960.4 459.428 1963.06 463.661 1968.38 467.204C1972.61 470.157 1980.33 473.306 1991.56 476.653L2007.94 481.377C2047.41 493.09 2067.15 512.086 2067.15 538.366C2067.15 551.555 2062.32 563.317 2052.68 573.652C2040.47 586.742 2019.31 593.287 1989.19 593.287C1959.86 593.287 1933.43 584.724 1909.91 567.598L1928.66 537.923Z" fill="black"/>
<path d="M17 615.932V522.39L381 400.572V495.679L17 615.932Z" stroke="black" stroke-width="32.8651"/>
<path d="M17 451.646V358.104L381 236.286V331.393L17 451.646Z" stroke="black" stroke-width="32.8651"/>
<path d="M17 287.36V193.818L381 72V167.107L17 287.36Z" stroke="black" stroke-width="32.8651"/>
</svg>
